<svg xmlns="http://www.w3.org/2000/svg" viewBox="0 0 1097.79 343.64"><defs><style>.cls-1{fill:#00356a;}.cls-2{font-size:156.59px;fill:#003d7f;font-family:HelveticaNeue-Bold, Helvetica Neue;font-weight:700;}</style></defs><g id="Layer_2" data-name="Layer 2"><g id="Layer_1-2" data-name="Layer 1"><g id="Layer_2-2" data-name="Layer 2"><g id="Layer_1-2-2" data-name="Layer 1-2"><path class="cls-1" d="M203.77,289.78v13.59c0,7.2-2.29,13-8.81,17-1.22.74-2.15,3.14-2,4.7.74,10.86-6.93,19.21-19.21,18.55-12.61-.67-25.28-.13-37.93-.16-11.28,0-17.47-6-17.76-17.37-.08-3.06-.52-5.12-3.58-6.95-5.15-3.07-7.22-8.34-7.25-14.31v-15c-3.07,0-5.76.05-8.38,0-5.83-.16-7.69-2-7.69-7.91-.06-11.52-.14-23.05,0-34.58.07-3.95-1.07-6.44-4.32-9.19C68.12,222.17,55.25,202.32,50.71,178,42.12,132,56.86,94.21,95,67.38c40.65-28.6,94.13-24.77,131,7.68,27,23.87,39,54.42,36.29,90-2.24,29.78-16.09,54.21-38.87,73.45-2.74,2.31-3.92,4.58-3.84,8.11.17,11.36.07,22.74.05,34.1,0,8-1.06,9-9.28,9C208.43,289.79,206.51,289.78,203.77,289.78Zm5.53-10.67v-5c0-10.88.06-21.76,0-32.66a9.36,9.36,0,0,1,4-8.14c35.23-27.15,48.3-70.21,32.79-111.81C226.42,68.65,167.75,44.07,117,66.55c-35.3,15.65-55.26,43.66-58,82.61-2.43,34.66,11.12,62.57,38.26,83.94,2.78,2.18,4.19,4.32,4.12,7.94q-.32,16.8,0,33.62c0,1.57,1.57,4.39,2.55,4.45,6.32.41,12.68.22,19.5.22V273c0-32.49-.27-65,.21-97.46.11-7.35-3.2-11.05-8.64-14.33a4.67,4.67,0,0,1-2.1-3,63.47,63.47,0,0,1-.1-7.68,18.25,18.25,0,0,1,13,5.62c7.11,6.87,9.33,6.86,16.33.1,8-7.74,18.46-7.82,26.57-.23,7.48,7,9.35,7,16.68,0,3.52-3.36,7.47-5.68,12.76-5.26v9.61c-7.61,2.79-10.82,7.8-10.68,16.52.53,32.15.21,64.35.21,96.49v5.71ZM134,278.84h43.06V173.66c-5.91-3.84-11-6.85-15.8-10.29-4.57-3.28-7-3.33-11.62-.05-4.81,3.42-9.86,6.5-15.64,10.27ZM117.62,290.2c0,5.49-.12,10.43,0,15.37.13,3.74,2,5.7,6.08,5.68q31.62-.13,63.25,0c4.62,0,6.3-2.36,6.46-6.43.11-3.19-.23-6.42.09-9.61.45-4.24-1.12-5.44-5.35-5.41-21.71.21-43.44.09-65.16.11-1.52,0-3.1.16-5.37.29Zm11,32.26c-.75,9,.64,10.57,8.82,10.57,12.29,0,24.59-.41,36.86.17,6.33.3,10-3.13,7.59-10.76Z"/><path class="cls-1" d="M31.36,150.8v9.74H0V150.8Z"/><path class="cls-1" d="M310.93,150.8v9.76H279.51V150.8Z"/><path class="cls-1" d="M150.64,0h9.88V31.12h-9.88Z"/><path class="cls-1" d="M42.31,48.72l6.46-6.59,22,22.09-6.61,6.42Z"/><path class="cls-1" d="M246.24,70.89c-1.92-1.93-4.1-4.2-6.09-6.24l22.37-22.29,5.9,6.34Z"/><path class="cls-1" d="M64.88,240.24l6.06,6L48.52,268.75l-5.83-6.3Z"/><path class="cls-1" d="M240.21,246.37l6.26-5.76,21.89,21.89-6,6Z"/></g></g><text class="cls-2" transform="translate(340.7 219.86)">startovate</text></g></g></svg>