<svg xmlns="http://www.w3.org/2000/svg" viewBox="0 0 1026.81 273.98"><defs><style>.cls-1,.cls-2{fill:#b32113;}.cls-2{font-size:156.59px;font-family:HelveticaNeue-Bold, Helvetica Neue;font-weight:700;}</style></defs><g id="Layer_2" data-name="Layer 2"><g id="Layer_1-2" data-name="Layer 1"><g id="Layer_2-2" data-name="Layer 2"><g id="Layer_1-2-2" data-name="Layer 1-2"><path class="cls-1" d="M162.47,231v10.83c0,5.75-1.83,10.4-7,13.54a4.79,4.79,0,0,0-1.63,3.75c.59,8.66-5.52,15.31-15.31,14.79-10.06-.53-20.16-.11-30.25-.13-9,0-13.93-4.77-14.16-13.84-.06-2.45-.41-4.09-2.84-5.55-4.12-2.45-5.76-6.65-5.79-11.41V231c-2.45,0-4.59,0-6.68,0-4.65-.12-6.13-1.59-6.13-6.3-.05-9.19-.11-18.38,0-27.57.06-3.16-.86-5.14-3.44-7.33-14.9-12.7-25.16-28.52-28.78-47.9-6.85-36.72,4.91-66.82,35.3-88.21,32.41-22.8,75.05-19.75,104.4,6.13,21.54,19,31.11,43.38,28.94,71.75-1.79,23.74-12.83,43.22-31,58.57a7.42,7.42,0,0,0-3.06,6.46c.14,9.06.06,18.13.05,27.18,0,6.38-.85,7.18-7.4,7.22Zm4.41-8.5v-4c0-8.68,0-17.35,0-26a7.44,7.44,0,0,1,3.21-6.49c28.09-21.64,38.51-56,26.14-89.15C180.52,54.73,133.75,35.14,93.31,53.06,65.16,65.54,49.25,87.87,47.08,118.92c-1.94,27.64,8.86,49.89,30.5,66.93,2.22,1.73,3.34,3.44,3.29,6.33q-.24,13.4,0,26.8c0,1.26,1.25,3.5,2,3.56,5,.32,10.1.16,15.54.16v-5.06c0-25.9-.21-51.8.17-77.7.08-5.86-2.56-8.81-6.89-11.42a3.8,3.8,0,0,1-1.68-2.37A52.22,52.22,0,0,1,90,120a14.59,14.59,0,0,1,10.35,4.48c5.68,5.48,7.44,5.47,13,.08,6.36-6.16,14.72-6.23,21.19-.17,6,5.57,7.45,5.56,13.29,0,2.81-2.68,6-4.54,10.18-4.2v7.66c-6.07,2.23-8.63,6.22-8.51,13.17.42,25.64.16,51.31.16,76.93v4.55Zm-60-.23h34.33V138.46c-4.71-3.07-8.77-5.46-12.6-8.2-3.64-2.62-5.61-2.66-9.26,0-3.83,2.73-7.86,5.18-12.47,8.19Zm-13.08,9.06c0,4.38-.1,8.32,0,12.26.1,3,1.59,4.55,4.85,4.53q25.22-.12,50.43,0c3.68,0,5-1.88,5.14-5.13.09-2.54-.18-5.12.08-7.66.35-3.38-.9-4.34-4.27-4.31-17.31.16-34.63.07-51.95.08-1.22,0-2.47.13-4.28.23Zm8.75,25.73c-.6,7.19.5,8.42,7,8.42,9.79,0,19.6-.32,29.38.14,5.05.24,8-2.5,6.06-8.58Z"/><path class="cls-1" d="M25,120.23V128H0v-7.77Z"/><path class="cls-1" d="M247.9,120.23V128H222.85v-7.78Z"/><path class="cls-1" d="M120.1,0H128V24.81H120.1Z"/><path class="cls-1" d="M33.73,38.84l5.16-5.25L56.42,51.2l-5.26,5.12Z"/><path class="cls-1" d="M196.32,56.52c-1.53-1.54-3.26-3.35-4.85-5L209.3,33.77,214,38.83Z"/><path class="cls-1" d="M51.73,191.54l4.83,4.77-17.88,18-4.65-5Z"/><path class="cls-1" d="M191.52,196.43l5-4.6L214,209.29l-4.76,4.77Z"/></g></g><text class="cls-2" transform="translate(269.73 191.54)">startovate</text></g></g></svg>