<svg width="95" height="105" viewBox="0 0 95 105" fill="none" xmlns="http://www.w3.org/2000/svg">
<path d="M62.259 88.538V92.6902C62.259 94.8901 61.5593 96.6622 59.5672 97.8843C59.1945 98.1104 58.9103 98.8437 58.9562 99.3203C59.1822 102.638 56.8388 105.19 53.0868 104.988C49.234 104.783 45.3629 104.948 41.4979 104.939C38.0514 104.939 36.1602 103.106 36.0716 99.632C36.0471 98.697 35.9127 98.0676 34.9778 97.5085C33.4043 96.5705 32.7718 94.9603 32.7626 93.1363V88.5533C31.8246 88.5533 31.0027 88.5685 30.2022 88.5533C28.421 88.5044 27.8527 87.9422 27.8527 86.1365C27.8344 82.6167 27.8099 79.0939 27.8527 75.5711C27.8741 74.3642 27.5258 73.6034 26.5328 72.7632C20.8132 67.8808 16.8809 61.8159 15.4938 54.3853C12.8692 40.3307 17.3728 28.7845 29.0259 20.587C41.4459 11.8487 57.7859 13.0189 69.051 22.9335C77.3005 30.2266 80.9669 39.5607 80.1389 50.4317C79.4545 59.5305 75.2228 66.9947 68.2627 72.8732C67.4256 73.579 67.065 74.2726 67.0895 75.3511C67.1414 78.822 67.1109 82.299 67.1048 85.7698C67.1048 88.2141 66.7809 88.5197 64.2694 88.5197C63.6828 88.541 63.0961 88.538 62.259 88.538ZM63.9486 85.2779V83.7502C63.9486 80.426 63.9669 77.1018 63.9486 73.7715C63.9248 73.2873 64.0245 72.8051 64.2383 72.37C64.4521 71.935 64.7729 71.5614 65.1707 71.2844C75.9347 62.9891 79.9281 49.8328 75.1892 37.1225C69.1793 20.975 51.2536 13.465 35.7477 20.3334C24.9623 25.115 18.8638 33.6731 18.0267 45.5736C17.2842 56.1635 21.4242 64.691 29.7164 71.2203C30.5658 71.8863 30.9966 72.5402 30.9753 73.6462C30.9101 77.0682 30.9101 80.4922 30.9753 83.9183C30.9753 84.398 31.4549 85.2596 31.7544 85.2779C33.6853 85.4032 35.6285 85.3451 37.7123 85.3451V83.4111C37.7123 73.4843 37.6298 63.5513 37.7765 53.6337C37.8101 51.388 36.7987 50.2575 35.1366 49.2553C34.9735 49.1537 34.8325 49.0201 34.7222 48.8626C34.612 48.705 34.5347 48.5269 34.495 48.3387C34.4375 47.5579 34.4273 46.7743 34.4645 45.9922C35.2075 45.9993 35.9417 46.1549 36.6238 46.4498C37.3059 46.7446 37.9222 47.1729 38.4364 47.7093C40.6088 49.8084 41.2871 49.8053 43.4258 47.7399C45.8701 45.375 49.066 45.3506 51.5439 47.6696C53.8293 49.8084 54.4006 49.8084 56.6402 47.6696C57.7157 46.643 58.9225 45.9342 60.5388 46.0625V48.9987C58.2137 49.8511 57.2329 51.3819 57.2757 54.0461C57.4376 63.8691 57.3399 73.7073 57.3399 83.5272V85.2718L63.9486 85.2779ZM40.9418 85.1954H54.0981V53.0593C52.2924 51.886 50.7373 50.9663 49.2707 49.9153C47.8744 48.9131 47.1319 48.8979 45.7204 49.9C44.2507 50.945 42.7078 51.886 40.9418 53.0379V85.1954ZM35.9371 88.6663C35.9371 90.3437 35.9005 91.853 35.9371 93.3624C35.9769 94.5051 36.5482 95.1039 37.7948 95.0978C44.2355 95.0713 50.6772 95.0713 57.1199 95.0978C58.5315 95.0978 59.0448 94.3768 59.0936 93.1332C59.1273 92.1586 59.0234 91.1717 59.1211 90.197C59.2586 88.9016 58.7789 88.5349 57.4865 88.5441C50.8534 88.6083 44.2141 88.5716 37.5779 88.5777C37.1134 88.5777 36.6307 88.6266 35.9371 88.6663ZM39.298 98.5229C39.0689 101.273 39.4936 101.752 41.9928 101.752C45.7479 101.752 49.506 101.627 53.2549 101.804C55.1889 101.896 56.3102 100.848 55.5739 98.5168L39.298 98.5229Z" fill="white"/>
<path d="M9.58158 46.0747V49.0506H0V46.0747H9.58158Z" fill="white"/>
<path d="M94.9998 46.0747V49.0567H85.3999V46.0747H94.9998Z" fill="white"/>
<path d="M46.0259 0H49.0446V9.50825H46.0259V0Z" fill="white"/>
<path d="M12.9271 14.8858L14.9009 12.8723L21.6226 19.6216L19.6031 21.5831L12.9271 14.8858Z" fill="white"/>
<path d="M75.2349 21.6593C74.6482 21.0696 73.9822 20.3761 73.3741 19.7528L80.209 12.9424L82.0116 14.8795L75.2349 21.6593Z" fill="white"/>
<path d="M19.8232 73.4019L21.6747 75.2351L14.8246 82.1127L13.0433 80.1878L19.8232 73.4019Z" fill="white"/>
<path d="M73.3927 75.2748L75.3053 73.5149L81.9935 80.2031L80.1603 82.0363L73.3927 75.2748Z" fill="white"/>
</svg>
